HIERARCHY
ROOT joint_Root
{
	OFFSET 0.0 0.0 0.0
	CHANNELS 6 Xposition Yposition Zposition Zrotation Xrotation Yrotation 
	JOINT Hips
	{
		OFFSET 4.5925 91.4895 -427.239
		CHANNELS 6 Xposition Yposition Zposition Zrotation Xrotation Yrotation 
		JOINT Spine
		{
			OFFSET 15.7357 0.0 0.0
			CHANNELS 6 Xposition Yposition Zposition Zrotation Xrotation Yrotation 
			JOINT Chest
			{
				OFFSET 8.98455 -0.406207 0.0
				CHANNELS 6 Xposition Yposition Zposition Zrotation Xrotation Yrotation 
				JOINT Neck
				{
					OFFSET 16.3773 0.0 0.0
					CHANNELS 6 Xposition Yposition Zposition Zrotation Xrotation Yrotation 
					JOINT Head
					{
						OFFSET 6.45672 0.0 0.0
						CHANNELS 6 Xposition Yposition Zposition Zrotation Xrotation Yrotation 
						End Site
						{
							OFFSET 0.0 0.0 0.0
						}
					}
				}
				JOINT Shoulder_L
				{
					OFFSET 12.9942 -0.242716 4.98039
					CHANNELS 6 Xposition Yposition Zposition Zrotation Xrotation Yrotation 
					JOINT UpperArm_L
					{
						OFFSET 5.34809 0.0 0.0
						CHANNELS 6 Xposition Yposition Zposition Zrotation Xrotation Yrotation 
						JOINT LowerArm_L
						{
							OFFSET 24.3286 1.87007e-05 0.0
							CHANNELS 6 Xposition Yposition Zposition Zrotation Xrotation Yrotation 
							JOINT Hand_L
							{
								OFFSET 22.2916 0.0 0.0
								CHANNELS 6 Xposition Yposition Zposition Zrotation Xrotation Yrotation 
								End Site
								{
									OFFSET 0.0 0.0 0.0
								}
							}
						}
					}
				}
				JOINT Shoulder_R
				{
					OFFSET 12.9945 -0.242716 -4.98039
					CHANNELS 6 Xposition Yposition Zposition Zrotation Xrotation Yrotation 
					JOINT UpperArm_R
					{
						OFFSET -5.34813 0.0 0.0
						CHANNELS 6 Xposition Yposition Zposition Zrotation Xrotation Yrotation 
						JOINT LowerArm_R
						{
							OFFSET -24.3289 0.000322201 0.0
							CHANNELS 6 Xposition Yposition Zposition Zrotation Xrotation Yrotation 
							JOINT Hand_R
							{
								OFFSET -22.2915 -0.000108084 0.0
								CHANNELS 6 Xposition Yposition Zposition Zrotation Xrotation Yrotation 
								End Site
								{
									OFFSET 0.0 0.0 0.0
								}
							}
						}
					}
				}
			}
		}
		JOINT UpperLeg_L
		{
			OFFSET -2.19248 -6.46944 0.0
			CHANNELS 6 Xposition Yposition Zposition Zrotation Xrotation Yrotation 
			JOINT LowerLeg_L
			{
				OFFSET 39.0811 0.0 -1.23785e-05
				CHANNELS 6 Xposition Yposition Zposition Zrotation Xrotation Yrotation 
				JOINT Foot_L
				{
					OFFSET 40.9854 0.0 -1.26872e-05
					CHANNELS 6 Xposition Yposition Zposition Zrotation Xrotation Yrotation 
					JOINT Toes_L
					{
						OFFSET 11.7543 0.0 0.0
						CHANNELS 6 Xposition Yposition Zposition Zrotation Xrotation Yrotation 
						End Site
						{
							OFFSET 0.0 0.0 0.0
						}
					}
				}
			}
		}
		JOINT UpperLeg_R
		{
			OFFSET -2.19251 6.46944 0.0
			CHANNELS 6 Xposition Yposition Zposition Zrotation Xrotation Yrotation 
			JOINT LowerLeg_R
			{
				OFFSET -39.0811 -0.00228153 -0.0401928
				CHANNELS 6 Xposition Yposition Zposition Zrotation Xrotation Yrotation 
				JOINT Foot_R
				{
					OFFSET -40.9854 0.0 0.0
					CHANNELS 6 Xposition Yposition Zposition Zrotation Xrotation Yrotation 
					JOINT Toes_R
					{
						OFFSET -11.7543 0.0 0.0
						CHANNELS 6 Xposition Yposition Zposition Zrotation Xrotation Yrotation 
						End Site
						{
							OFFSET 0.0 0.0 0.0
						}
					}
				}
			}
		}
	}
}
MOTION
Frames:	5
Frame Time:	0.0333333
0.000000 0.000000 0.000000 0.000000 0.000000 -0.000000 -0.568911 78.334600 416.942000 -94.754400 -11.867300 171.384000 15.735700 0.000005 -0.000001 72.160300 79.515000 -74.507000 8.984550 -0.406207 -0.000000 12.122100 -6.455750 -4.009520 16.377300 -0.000001 -0.000001 -4.165290 -9.101690 1.747750 6.456720 -0.000001 -0.000000 -8.847590 -8.103950 7.086940 12.994200 -0.242716 4.980390 -90.550600 3.128590 -80.015300 5.348090 -0.000007 -0.000001 -54.741700 18.225400 -40.923000 24.328600 0.000019 0.000005 3.055480 2.580070 -49.873100 22.291600 -0.000001 0.000005 8.905420 5.489500 -6.114940 12.994500 -0.242716 -4.980390 88.064500 8.519120 -77.149500 -5.348130 -0.000001 -0.000004 -65.733100 26.837400 4.036090 -24.328900 0.000322 -0.000009 3.131490 6.329210 -26.408700 -22.291500 -0.000108 -0.000004 7.191550 5.371650 -2.037660 -2.192480 -6.469440 -0.000000 176.395000 -0.928165 -28.787100 39.081100 -0.000007 -0.000012 -0.313299 0.132494 67.077600 40.985400 -0.000006 -0.000013 0.601661 0.754474 -96.312200 11.754300 -0.000000 0.000003 -0.000155 -0.001497 -16.634400 -2.192510 6.469440 -0.000001 -179.470000 8.830950 119.791000 -39.081100 -0.002282 -0.040193 -0.097039 -0.063759 122.387000 -40.985400 0.000008 0.000006 3.218790 -1.178740 -42.367600 -11.754300 -0.000006 -0.000006 -0.022592 -0.181242 -23.983200
0.000000 0.000000 0.000000 0.000000 0.000000 -0.000000 0.200236 80.309400 408.538000 -91.412100 -14.988900 169.734000 15.735700 0.000005 -0.000001 64.960900 79.960300 -65.504200 8.984550 -0.406207 -0.000000 10.469600 -8.453090 -0.311537 16.377300 -0.000001 -0.000001 -4.248890 -8.531730 1.696580 6.456720 -0.000001 -0.000000 -8.749880 -6.434720 6.995140 12.994200 -0.242716 4.980390 -90.136400 0.775739 -80.024800 5.348090 -0.000007 -0.000001 -54.421700 17.964700 -48.506800 24.328600 0.000019 0.000005 1.068800 0.597065 -60.825300 22.291600 -0.000001 0.000005 10.259100 5.499950 -6.530190 12.994500 -0.242716 -4.980390 87.876700 7.955840 -75.003700 -5.348130 -0.000001 -0.000004 -64.808200 26.721800 13.521700 -24.328900 0.000322 -0.000009 4.042220 8.223770 -26.299500 -22.291500 -0.000108 -0.000004 6.715470 5.386680 -2.508440 -2.192480 -6.469440 -0.000000 -177.145000 -1.927640 -20.078300 39.081100 -0.000007 -0.000012 -0.319366 0.210656 56.591800 40.985400 -0.000006 -0.000013 0.273333 4.947250 -96.889700 11.754300 -0.000000 0.000003 -0.000066 -0.000724 -16.605600 -2.192510 6.469440 -0.000001 -175.010000 7.533770 112.809000 -39.081100 -0.002282 -0.040193 0.001458 -0.000913 113.676000 -40.985400 0.000008 0.000006 3.186740 -4.319420 -51.645200 -11.754300 -0.000006 -0.000006 -0.016721 -0.148396 -22.630500
0.000000 0.000000 0.000000 0.000000 0.000000 -0.000000 0.583321 83.658500 399.419000 -87.899100 -15.708600 168.120000 15.735700 0.000005 -0.000001 57.466200 80.516900 -56.367200 8.984550 -0.406207 -0.000000 8.421580 -10.147000 2.949240 16.377300 -0.000001 -0.000001 -4.075470 -7.728290 1.832080 6.456720 -0.000001 -0.000000 -8.296410 -4.070240 6.323000 12.994200 -0.242716 4.980390 -89.850900 -0.784471 -79.238900 5.348090 -0.000007 -0.000001 -54.150000 16.446700 -50.163100 24.328600 0.000019 0.000005 1.443650 0.432996 -73.301200 22.291600 -0.000001 0.000005 12.310900 5.503840 -6.688950 12.994500 -0.242716 -4.980390 88.388800 5.432750 -73.452300 -5.348130 -0.000001 -0.000004 -64.546400 25.914400 20.585600 -24.328900 0.000322 -0.000009 2.321430 4.240470 -28.746200 -22.291500 -0.000108 -0.000004 3.227550 5.375090 -2.143820 -2.192480 -6.469440 -0.000000 -171.880000 -2.268700 -9.192280 39.081100 -0.000007 -0.000012 -0.020081 0.023922 40.014000 40.985400 -0.000006 -0.000013 -0.117774 5.563760 -87.561500 11.754300 -0.000000 0.000003 -1.060940 -1.226020 -21.645300 -2.192510 6.469440 -0.000001 -172.961000 4.831990 111.367000 -39.081100 -0.002282 -0.040193 0.126044 0.017266 98.049100 -40.985400 0.000008 0.000006 2.371880 -4.602830 -58.999100 -11.754300 -0.000006 -0.000006 -0.016324 -0.146001 -22.532100
0.000000 0.000000 0.000000 0.000000 0.000000 -0.000000 0.723668 87.527800 390.436000 -85.792900 -16.606500 164.883000 15.735700 0.000005 -0.000001 46.705900 81.021900 -44.255900 8.984550 -0.406207 -0.000000 5.676570 -12.329700 5.522920 16.377300 -0.000001 -0.000001 -4.007570 -6.854430 1.960870 6.456720 -0.000001 -0.000000 -7.801450 -1.794830 5.327780 12.994200 -0.242716 4.980390 -89.513800 -2.361540 -78.364200 5.348090 -0.000007 -0.000001 -55.236800 14.765800 -48.595100 24.328600 0.000019 0.000005 2.166390 0.243063 -83.595100 22.291600 -0.000001 0.000005 11.821900 5.501650 -6.597920 12.994500 -0.242716 -4.980390 89.399700 1.934230 -72.752300 -5.348130 -0.000001 -0.000004 -65.326200 24.079200 25.652700 -24.328900 0.000322 -0.000009 2.447640 3.877560 -32.308300 -22.291500 -0.000108 -0.000004 2.450800 5.387520 -2.534960 -2.192480 -6.469440 -0.000000 -168.387000 -2.259950 -4.446040 39.081100 -0.000007 -0.000012 -0.007581 0.013661 29.030600 40.985400 -0.000006 -0.000013 -2.173150 5.306740 -67.208100 11.754300 -0.000000 0.000003 -0.134701 -0.523601 -38.631800 -2.192510 6.469440 -0.000001 -171.714000 4.431410 112.616000 -39.081100 -0.002282 -0.040193 0.165765 -0.038064 76.838800 -40.985400 0.000008 0.000006 3.690730 -4.706170 -63.946300 -11.754300 -0.000006 -0.000006 -0.016554 -0.147393 -22.589300
0.000000 0.000000 0.000000 0.000000 0.000000 -0.000000 0.655098 90.401200 381.116000 -86.762000 -16.920900 163.098000 15.735700 0.000005 -0.000001 39.733900 80.851100 -37.043300 8.984550 -0.406207 -0.000000 4.379280 -14.129500 5.939410 16.377300 -0.000001 -0.000001 -3.884720 -6.162100 2.056000 6.456720 -0.000001 -0.000000 -7.948000 -0.360451 4.504840 12.994200 -0.242716 4.980390 -89.201000 -3.650710 -77.646300 5.348090 -0.000007 -0.000001 -57.302600 13.821700 -46.800500 24.328600 0.000019 0.000005 2.066320 0.011220 -89.693400 22.291600 -0.000001 0.000005 9.682490 5.490550 -6.157390 12.994500 -0.242716 -4.980390 90.318300 -0.979848 -72.008700 -5.348130 -0.000001 -0.000004 -66.923400 23.462400 29.365100 -24.328900 0.000322 -0.000009 2.421420 3.351080 -35.898500 -22.291500 -0.000108 -0.000004 3.997790 5.410490 -3.281150 -2.192480 -6.469440 -0.000000 -165.827000 -13.046000 -1.926390 39.081100 -0.000007 -0.000012 0.039530 -0.088226 24.135100 40.985400 -0.000006 -0.000013 -6.073580 13.289900 -42.596400 11.754300 -0.000000 0.000003 -0.147073 -0.548938 -39.775000 -2.192510 6.469440 -0.000001 -173.165000 5.775530 118.728000 -39.081100 -0.002282 -0.040193 0.095726 -0.069882 52.926800 -40.985400 0.000008 0.000006 2.837060 -0.497198 -67.580400 -11.754300 -0.000006 -0.000006 -0.017916 -0.155461 -22.921000
